Coordinates
version=1
nRows=40
nColumns=34
inDegrees=no

Units are S.I. units (second, meters, Newtons, ...)
If the header above contains a line with 'inDegrees', this indicates whether rotational values are in degrees (yes) or radians (no).

endheader
time	pelvis_tilt	pelvis_list	pelvis_rotation	pelvis_tx	pelvis_ty	pelvis_tz	hip_flexion_r	hip_adduction_r	hip_rotation_r	knee_angle_r	ankle_angle_r	subtalar_angle_r	mtp_angle_r	hip_flexion_l	hip_adduction_l	hip_rotation_l	knee_angle_l	ankle_angle_l	subtalar_angle_l	mtp_angle_l	lumbar_extension	lumbar_bending	lumbar_rotation	arm_flex_r	arm_add_r	arm_rot_r	elbow_flex_r	pro_sup_r	arm_flex_l	arm_add_l	arm_rot_l	elbow_flex_l	pro_sup_l
1.92	-0.49698	-0.019936	-0.0122711	-0.184522	0.780752	-0.571862	1.18194	-0.0611484	0.158583	1.32815	0.263933	-0.610865	0	1.30208	-0.157905	0.122599	1.36354	0.166359	-0.46162	0	-0.0160274	-0.0303256	-0.101778	2.40978	-0.310523	0.513066	1.676	1.85708	2.73622	-0.172276	0.90032	1.3666	1.91935
1.93	-0.492179	-0.0234419	-0.0189933	-0.1781	0.795933	-0.570895	1.14303	-0.0486542	0.14303	1.27434	0.231787	-0.607987	0	1.26618	-0.16306	0.111517	1.31998	0.153849	-0.418448	0	0.00542597	-0.0287154	-0.0827043	2.44602	-0.326812	0.540696	1.6232	1.84671	2.75855	-0.166888	0.913804	1.31164	1.92407
1.94	-0.486163	-0.0256617	-0.0254087	-0.171743	0.811679	-0.569932	1.10318	-0.0387591	0.129992	1.21955	0.207883	-0.570505	0	1.22826	-0.168267	0.0980724	1.27397	0.136469	-0.37569	0	0.0248783	-0.0263207	-0.0652141	2.47996	-0.331845	0.5613	1.56119	1.84433	2.77803	-0.165332	0.925558	1.25813	1.93084
1.95	-0.479039	-0.0285231	-0.0320524	-0.16547	0.82814	-0.569033	1.06236	-0.0295243	0.117985	1.16292	0.179169	-0.528644	0	1.18875	-0.174926	0.08405	1.22545	0.115525	-0.329887	0	0.042232	-0.0217345	-0.0463638	2.51363	-0.330371	0.580898	1.49262	1.85125	2.79478	-0.165267	0.938405	1.20621	1.93297
1.96	-0.471125	-0.0309834	-0.0381324	-0.159159	0.845537	-0.568269	1.02047	-0.0224212	0.106818	1.10359	0.14392	-0.483157	0	1.14646	-0.180805	0.06889	1.17217	0.0892417	-0.282169	0	0.0585377	-0.0166991	-0.0265375	2.5456	-0.325047	0.602436	1.42089	1.86634	2.80709	-0.165316	0.951347	1.15494	1.93708
1.97	-0.460945	-0.0314967	-0.0427759	-0.152705	0.863997	-0.567713	0.975663	-0.0194865	0.0966132	1.04134	0.102137	-0.433898	0	1.09864	-0.183603	0.0518595	1.11262	0.0571172	-0.232602	0	0.0723876	-0.0134626	-0.00747811	2.57465	-0.316355	0.625508	1.34779	1.88352	2.81553	-0.164474	0.964753	1.10226	1.94964
1.98	-0.447419	-0.0299881	-0.0457852	-0.146071	0.883484	-0.567487	0.92627	-0.0215579	0.0860973	0.975606	0.0540657	-0.380126	0	1.044	-0.18339	0.0325925	1.04658	0.0196111	-0.179821	0	0.082374	-0.01274	0.010212	2.60055	-0.30491	0.648538	1.2743	1.89899	2.82185	-0.160832	0.981295	1.04647	1.96598
1.99	-0.430809	-0.0264352	-0.0473264	-0.139224	0.903908	-0.567604	0.871853	-0.0291343	0.0733207	0.905115	0.000576794	-0.321663	0	0.982528	-0.18091	0.0103463	0.973408	-0.0239142	-0.123174	0	0.0887054	-0.0144682	0.0263863	2.6228	-0.290918	0.670304	1.20186	1.91481	2.82728	-0.154511	1.00416	0.988372	1.97545
2	-0.411814	-0.0207858	-0.0482724	-0.132125	0.925202	-0.567848	0.81248	-0.0415058	0.0576658	0.828437	-0.0580632	-0.259001	0	0.914056	-0.176948	-0.0151542	0.891567	-0.0751086	-0.0635993	0	0.092465	-0.0182213	0.0413131	2.64	-0.274193	0.689331	1.13272	1.93258	2.83143	-0.14763	1.0345	0.930847	1.97374
2.01	-0.390876	-0.0141517	-0.0494886	-0.124788	0.947243	-0.568028	0.747893	-0.0567818	0.0390196	0.74438	-0.123424	-0.191466	0	0.838517	-0.172441	-0.0426965	0.799739	-0.136265	-0.00402986	0	0.0944875	-0.0227733	0.0553462	2.65084	-0.255117	0.70384	1.0685	1.94895	2.83281	-0.14129	1.06955	0.876516	1.96765
2.02	-0.368938	-0.00833665	-0.0501333	-0.117332	0.969726	-0.568231	0.678128	-0.0739382	0.0146538	0.651687	-0.19816	-0.118868	0	0.757568	-0.167539	-0.0690636	0.697769	-0.210235	0.0515529	0	0.0958358	-0.0264575	0.0675074	2.65534	-0.235048	0.714699	1.00934	1.95915	2.83006	-0.135164	1.10361	0.82782	1.96406
2.03	-0.347843	-0.0043757	-0.0490122	-0.109879	0.992194	-0.568557	0.604449	-0.0920667	-0.0188515	0.54899	-0.287276	-0.0458973	0	0.674583	-0.162556	-0.0911254	0.5867	-0.299337	0.101402	0	0.0984786	-0.0282264	0.0767284	2.65475	-0.215707	0.726579	0.954517	1.96169	2.8227	-0.129002	1.13285	0.787538	1.96085
2.04	-0.328674	-0.00189011	-0.0473203	-0.102429	1.01425	-0.568832	0.528912	-0.10911	-0.061393	0.436313	-0.397241	0.0196949	0	0.591775	-0.158964	-0.110434	0.4677	-0.406357	0.144639	0	0.103693	-0.0283176	0.0845329	2.65062	-0.197911	0.74365	0.902782	1.95885	2.8114	-0.122864	1.15756	0.755596	1.95532
2.05	-0.311095	-0.000658348	-0.0473368	-0.0949922	1.03564	-0.568829	0.453774	-0.122527	-0.113774	0.317621	-0.5213	0.0768716	0	0.50976	-0.157968	-0.131809	0.342171	-0.531073	0.177195	0	0.110819	-0.026826	0.0937813	2.64452	-0.181596	0.766018	0.853096	1.95424	2.79767	-0.116505	1.17822	0.728438	1.95006
2.06	-0.295092	-0.00153671	-0.0487568	-0.0878696	1.0562	-0.568559	0.382507	-0.1294	-0.177248	0.203434	-0.626586	0.134286	0	0.430955	-0.159023	-0.1571	0.215961	-0.652875	0.198906	0	0.118728	-0.0230326	0.10442	2.63791	-0.166534	0.790608	0.805376	1.95142	2.78329	-0.109815	1.19327	0.704049	1.94794
2.07	-0.281776	-0.00341122	-0.0489181	-0.0815504	1.07567	-0.568251	0.322044	-0.130079	-0.234638	0.111651	-0.676584	0.193683	0	0.361673	-0.158802	-0.182978	0.103811	-0.730402	0.217255	0	0.127417	-0.0186881	0.113325	2.63156	-0.152454	0.813233	0.760372	1.95308	2.77016	-0.103154	1.20189	0.682863	1.95077
2.08	-0.272204	-0.00308171	-0.0466287	-0.0763238	1.09374	-0.568168	0.280699	-0.132616	-0.278297	0.0597444	-0.675094	0.244383	0	0.31054	-0.154447	-0.208376	0.0261425	-0.74424	0.232829	0	0.137694	-0.0175124	0.118482	2.62498	-0.139396	0.82978	0.720121	1.95965	2.75944	-0.0966226	1.20479	0.664418	1.96006
2.09	-0.267114	-0.000415383	-0.0434241	-0.0723655	1.11023	-0.568329	0.263625	-0.14337	-0.346761	0.0544157	-0.665129	0.286752	0	0.284741	-0.149026	-0.254914	0	-0.726171	0.245931	0	0.150401	-0.0193169	0.120302	2.61654	-0.127726	0.835397	0.688042	1.97288	2.75064	-0.0902283	1.19999	0.647842	1.98179
2.1	-0.264514	0.00207869	-0.0409515	-0.0695049	1.12529	-0.568505	0.261303	-0.159131	-0.424674	0.0792464	-0.675441	0.291085	0	0.278839	-0.147862	-0.33002	0.00840784	-0.719334	0.253273	0	0.163673	-0.0210129	0.119261	2.60429	-0.117182	0.823799	0.667387	1.98845	2.74245	-0.0851232	1.1864	0.634803	2.01288
2.11	-0.260748	0.00289556	-0.0383104	-0.0671508	1.13929	-0.568497	0.258225	-0.172966	-0.464765	0.109597	-0.694025	0.246468	0	0.277047	-0.152781	-0.404396	0.0376398	-0.728838	0.2469	0	0.174129	-0.0214183	0.114601	2.58837	-0.108246	0.797636	0.660369	1.98206	2.73444	-0.0826323	1.1718	0.629539	2.01753
2.12	-0.25351	0.00336709	-0.0342429	-0.0645881	1.15261	-0.568344	0.247427	-0.182702	-0.455012	0.132689	-0.706595	0.190327	0	0.268286	-0.158478	-0.438479	0.0646145	-0.7377	0.227574	0	0.18033	-0.0227195	0.106718	2.56884	-0.102169	0.760452	0.667121	1.97163	2.72444	-0.0817902	1.14941	0.63115	2.02478
2.13	-0.242997	0.00406977	-0.027995	-0.0614557	1.16544	-0.568228	0.229253	-0.188402	-0.409233	0.145907	-0.714365	0.147082	0	0.251796	-0.16028	-0.423989	0.0811925	-0.742808	0.200953	0	0.183017	-0.0255759	0.0963705	2.54747	-0.0998369	0.726778	0.686353	1.97067	2.7117	-0.0817845	1.12167	0.640893	2.03104
2.14	-0.230952	0.00462879	-0.0206854	-0.0577253	1.17765	-0.56815	0.207497	-0.191472	-0.361099	0.152483	-0.719215	0.123546	0	0.230897	-0.158972	-0.392026	0.088164	-0.74786	0.177229	0	0.18386	-0.0276491	0.0846687	2.52731	-0.0979549	0.705275	0.711118	1.99246	2.69713	-0.0855795	1.0936	0.659366	2.03484
2.15	-0.219237	0.00507581	-0.0130305	-0.0535969	1.18896	-0.568056	0.185092	-0.1938	-0.338643	0.154444	-0.720817	0.117066	0	0.209082	-0.156621	-0.375556	0.0889615	-0.751471	0.164452	0	0.184483	-0.02746	0.0715796	2.51058	-0.0926038	0.691144	0.733391	2.02767	2.6827	-0.0959146	1.07067	0.68434	2.03647
2.16	-0.208266	0.00491804	-0.00343612	-0.0495982	1.19913	-0.56828	0.161967	-0.196413	-0.349829	0.151604	-0.717506	0.12594	0	0.189142	-0.154358	-0.381955	0.0866686	-0.750203	0.162967	0	0.185459	-0.0264394	0.0582274	2.49772	-0.0889495	0.681498	0.752519	2.05318	2.66795	-0.106115	1.05262	0.70775	2.03429
2.17	-0.197237	0.00304099	0.00939775	-0.0464165	1.20812	-0.569284	0.13805	-0.198724	-0.384119	0.145112	-0.709232	0.148272	0	0.172336	-0.153008	-0.398162	0.0833371	-0.742174	0.167951	0	0.18612	-0.0262266	0.0486533	2.48831	-0.0966931	0.680569	0.772813	2.07307	2.65007	-0.105474	1.03318	0.720895	2.02814
2.18	-0.187036	0.000121922	0.0243543	-0.0442521	1.21597	-0.570937	0.116478	-0.200661	-0.424897	0.137874	-0.699753	0.177128	0	0.159709	-0.152217	-0.411977	0.0799513	-0.729144	0.176035	0	0.186649	-0.0266365	0.0430822	2.48268	-0.113803	0.691061	0.794598	2.08963	2.63174	-0.0966616	1.01526	0.72556	2.021
2.19	-0.179891	-0.0016317	0.0397981	-0.0427314	1.22263	-0.572704	0.100405	-0.20358	-0.461808	0.132112	-0.692166	0.204194	0	0.152291	-0.150051	-0.417631	0.0767694	-0.7166	0.182673	0	0.188338	-0.0270809	0.0362347	2.48092	-0.12842	0.70691	0.813053	2.09	2.61942	-0.092625	1.00853	0.731447	2.01788
2.2	-0.175952	-0.00148361	0.0545989	-0.0415114	1.22808	-0.574326	0.0899165	-0.208336	-0.493208	0.129523	-0.686241	0.224878	0	0.149238	-0.145734	-0.415145	0.0743034	-0.707574	0.183604	0	0.191152	-0.0278057	0.0260552	2.48224	-0.136721	0.721414	0.825387	2.09	2.6154	-0.0977417	1.01567	0.742573	2.02025
2.21	-0.173373	-0.000659432	0.0678561	-0.0405446	1.23245	-0.575823	0.083763	-0.213933	-0.51801	0.131378	-0.681751	0.234275	0	0.148715	-0.140836	-0.408305	0.0737784	-0.700833	0.179457	0	0.193429	-0.0288359	0.0155078	2.48615	-0.144086	0.736274	0.834536	2.09	2.61762	-0.106712	1.0304	0.756126	2.02636
2.22	-0.171345	-0.000302664	0.0793969	-0.039837	1.23587	-0.577195	0.0814291	-0.218744	-0.532576	0.136986	-0.678711	0.228392	0	0.150343	-0.137012	-0.400882	0.0760275	-0.694425	0.173785	0	0.194381	-0.0295066	0.00657423	2.49258	-0.153205	0.75289	0.842717	2.09	2.62366	-0.116448	1.04593	0.771085	2.03418
2.23	-0.17066	-0.000691383	0.0895306	-0.0393457	1.23835	-0.578412	0.08297	-0.222407	-0.538546	0.144279	-0.67567	0.212961	0	0.154595	-0.134186	-0.39281	0.0798588	-0.687431	0.166486	0	0.194865	-0.0293936	-0.00110804	2.50126	-0.163019	0.770033	0.850185	2.09	2.63261	-0.127799	1.06094	0.789011	2.04284
2.24	-0.171764	-0.00199389	0.0970018	-0.0391071	1.23988	-0.579302	0.0883689	-0.224229	-0.535681	0.150617	-0.672682	0.194033	0	0.160886	-0.132435	-0.386884	0.0832212	-0.679227	0.159303	0	0.195714	-0.0281887	-0.00592771	2.51118	-0.173557	0.786602	0.858089	2.08947	2.64236	-0.139531	1.07233	0.809286	2.05057
2.25	-0.173934	-0.00395079	0.101245	-0.0392157	1.24045	-0.579649	0.0966375	-0.223785	-0.525611	0.154344	-0.670825	0.177113	0	0.16809	-0.131879	-0.384326	0.0851224	-0.670008	0.155052	0	0.19669	-0.0262396	-0.00699621	2.52089	-0.184873	0.802114	0.866805	2.08773	2.65076	-0.149502	1.07806	0.82846	2.05593
2.26	-0.17659	-0.00584066	0.103549	-0.0396786	1.24008	-0.579443	0.106428	-0.221483	-0.510815	0.154792	-0.669981	0.165293	0	0.176009	-0.131806	-0.381503	0.0857487	-0.660152	0.153312	0	0.197862	-0.0245195	-0.00591697	2.52852	-0.195916	0.813423	0.875112	2.08134	2.65637	-0.157316	1.07857	0.844239	2.05843
2.27	-0.180243	-0.00727083	0.1049	-0.0403549	1.23867	-0.578903	0.117667	-0.218458	-0.495032	0.152441	-0.668727	0.159837	0	0.185167	-0.131164	-0.373637	0.0849517	-0.649738	0.151744	0	0.200305	-0.0237554	-0.00381562	2.53308	-0.207088	0.818706	0.883712	2.06603	2.65879	-0.163167	1.07536	0.857006	2.0594
2.28	-0.185482	-0.00820215	0.104907	-0.0410801	1.23615	-0.578226	0.131137	-0.215847	-0.482409	0.148697	-0.665997	0.161424	0	0.195478	-0.129382	-0.359517	0.0818785	-0.638599	0.150069	0	0.204626	-0.024066	4.46747e-05	2.53516	-0.219679	0.821747	0.895422	2.0444	2.65885	-0.167014	1.06953	0.868143	2.06199
2.29	-0.191552	-0.00851729	0.103428	-0.0418461	1.23257	-0.577525	0.146323	-0.214248	-0.475199	0.144838	-0.66132	0.168876	0	0.205832	-0.126392	-0.340851	0.0764221	-0.625781	0.148472	0	0.209751	-0.0248904	0.00579282	2.53529	-0.232232	0.825786	0.909807	2.02614	2.65742	-0.170283	1.06223	0.879122	2.06787
2.3	-0.196666	-0.00836988	0.101418	-0.0427536	1.22803	-0.576873	0.161065	-0.213405	-0.47441	0.141225	-0.654845	0.177296	0	0.214919	-0.122767	-0.320435	0.0697469	-0.609705	0.147021	0	0.213595	-0.0252945	0.0117532	2.53315	-0.241791	0.828042	0.923289	2.0177	2.65478	-0.175296	1.05518	0.891386	2.075
2.31	-0.199772	-0.00814654	0.100185	-0.0438124	1.22263	-0.576306	0.173729	-0.213181	-0.48413	0.13821	-0.64707	0.184965	0	0.22223	-0.119079	-0.299915	0.062744	-0.589801	0.146638	0	0.214752	-0.0252397	0.0159974	2.5289	-0.248048	0.825652	0.934818	2.01472	2.65166	-0.182554	1.04849	0.905347	2.09
